<?xml version="1.0" standalone="no"?>
<!DOCTYPE svg PUBLIC "-//W3C//DTD SVG 1.1//EN" "http://www.w3.org/Graphics/SVG/1.1/DTD/svg11.dtd" >
<svg xmlns="http://www.w3.org/2000/svg">
<metadata></metadata>
<defs>
<font id="ankeregular" horiz-adv-x="1193" >
<font-face units-per-em="2048" ascent="1536" descent="-512" />
<missing-glyph horiz-adv-x="614" />
<glyph horiz-adv-x="0" />
<glyph unicode="&#xd;" horiz-adv-x="1024" />
<glyph horiz-adv-x="0" />
<glyph horiz-adv-x="0" />
<glyph unicode=" "  horiz-adv-x="614" />
<glyph unicode="&#x09;" horiz-adv-x="614" />
<glyph unicode="&#xa0;" horiz-adv-x="614" />
<glyph unicode="!" horiz-adv-x="430" d="M102 1520h226l-21 -1078h-184zM104 111q0 47 32 78.5t79 31.5t79 -31.5t32 -78.5t-32 -79t-79 -32t-79 31.5t-32 79.5z" />
<glyph unicode="&#x22;" horiz-adv-x="612" d="M51 1165v185q18 0 35 10q-12 25 -12 49q0 47 32.5 79t77.5 32q47 0 79 -32t32 -77v-2v-2q0 -49 -19.5 -93t-52.5 -77t-78 -52.5t-94 -19.5zM315 1165v185q20 0 35 10q-10 27 -10 49q0 47 31.5 79t79.5 32q47 0 78.5 -32t31.5 -77v-2v-2q0 -49 -19.5 -93t-53 -77 t-77.5 -52.5t-96 -19.5z" />
<glyph unicode="#" horiz-adv-x="1587" d="M51 340v184h254l115 475h-205v185h250l82 336h211l-82 -336h442l82 336h211l-82 -336h207v-185h-252l-117 -475h205v-184h-250l-82 -340h-211l82 340h-440l-84 -340h-211l84 340h-209zM516 524h440l117 475h-442z" />
<glyph unicode="$" horiz-adv-x="1157" d="M51 412h185q0 -88 90 -156q102 -78 252 -78q152 0 253 78q90 68 91 156q0 90 -78 151q-96 74 -271 80l-2 2q-186 12 -313 111q-72 53 -108.5 124.5t-36.5 151.5q0 82 41 160q18 35 43.5 65.5t60.5 57.5q47 39 105.5 63.5t121.5 34.5v100h185v-100q66 -10 124 -34.5 t105 -63.5q35 -27 60.5 -57.5t44.5 -65.5q41 -78 40 -160h-184q0 80 -76 137q-84 68 -206 68q-121 0 -205 -68q-76 -57 -76 -137q0 -47 24.5 -78.5t49.5 -52.5q84 -63 213 -74q231 -9 372 -118q72 -55 111 -132t39 -165q0 -90 -47 -172q-20 -39 -50 -72t-67 -62 q-117 -84 -272 -106v-98h-185v98q-156 23 -270 106q-37 29 -66.5 62t-50.5 72q-47 82 -47 172z" />
<glyph unicode="%" horiz-adv-x="1122" d="M51 0l807 1427h213l-809 -1427h-211zM51 1145q0 57 22.5 109.5t60.5 90t89 60t111 22.5q57 0 109.5 -22.5t90 -60t60 -90t22.5 -109.5q0 -59 -22.5 -110.5t-60 -89.5t-90 -60.5t-109.5 -22.5q-59 0 -110.5 22.5t-89.5 60.5t-60.5 89t-22.5 111zM215 1145q0 -49 35 -84 t84 -35t84 35t35 84t-35 84t-84 35t-84 -35t-35 -84zM506 283q0 57 22.5 109t60.5 90t89 60.5t110 22.5q57 0 109.5 -22.5t90.5 -60.5t60.5 -90t22.5 -109q0 -59 -22.5 -110.5t-60.5 -89.5t-90 -60.5t-110 -22.5q-59 0 -110 22.5t-89 60.5t-60.5 89t-22.5 111zM670 283 q0 -49 34.5 -84t83.5 -35t84 34.5t35 84.5q0 49 -34.5 83.5t-84.5 34.5q-49 0 -83.5 -34.5t-34.5 -83.5z" />
<glyph unicode="&#x26;" horiz-adv-x="1210" d="M51 469q0 94 36 180t101 152q37 37 82 65q-41 45 -63.5 102.5t-22.5 123.5q0 70 27 130t72 106t106.5 72.5t130.5 26.5q70 0 131.5 -26.5t107.5 -72.5t72.5 -106.5t26.5 -129.5h-184q0 63 -45 107t-109 44q-63 0 -107 -44t-44 -107t44 -108.5t107 -45.5v-184 q-59 0 -111.5 -22.5t-90 -60.5t-60 -90.5t-22.5 -111.5t22.5 -111.5t60 -90.5t90 -60.5t111.5 -22.5t111.5 22.5t90.5 60.5t60.5 90.5t22.5 111.5q0 98 -60 174h-124v184h538v-184h-203q33 -78 33 -174q0 -94 -35.5 -180t-101.5 -152t-152 -101.5t-180 -35.5t-180 36 t-152 101q-66 66 -101.5 152t-35.5 180z" />
<glyph unicode="'" horiz-adv-x="346" d="M51 1165v185q18 0 35 10q-12 25 -12 49q0 47 32.5 79t77.5 32q47 0 79 -32t32 -77v-2v-2q0 -49 -19.5 -93t-52.5 -77t-78 -52.5t-94 -19.5z" />
<glyph unicode="(" horiz-adv-x="550" d="M102 578q0 195 24 370.5t71 317.5q47 141 112 227q29 37 77 73t114 36v-185q-4 0 -17.5 -8t-31 -30.5t-39 -63.5t-41.5 -107q-41 -127 -62.5 -288.5t-21.5 -341.5t21.5 -342t62.5 -289q20 -66 41.5 -107t39 -63.5t31 -30.5t17.5 -8v-184q-33 0 -72 13t-79 50t-80 102.5 t-72 169.5q-47 141 -71 317.5t-24 371.5z" />
<glyph unicode=")" horiz-adv-x="550" d="M51 -262q4 0 17.5 8t31 30.5t38 63.5t42.5 107q41 127 62.5 288.5t21.5 342.5q0 180 -21.5 341.5t-62.5 288.5q-23 66 -43 107t-37.5 63.5t-31 30.5t-17.5 8v185q33 0 72 -13.5t79 -50.5t78.5 -102.5t73.5 -169.5q47 -141 71 -317.5t24 -370.5q0 -195 -24 -371t-71 -318 q-23 -72 -51.5 -129t-60.5 -98q-29 -37 -77 -72.5t-114 -35.5v184z" />
<glyph unicode="*" horiz-adv-x="540" d="M51 1300l62 173l86 -52l-21 99h184l-20 -99l86 52l61 -173l-104 -14l78 -69l-146 -111l-47 96l-47 -96l-147 111l80 69z" />
<glyph unicode="+" horiz-adv-x="825" d="M51 440v185h268v268h185v-268h270v-185h-270v-270h-185v270h-268z" />
<glyph unicode="," horiz-adv-x="346" d="M51 51q18 0 35 10q-12 20 -12 50q0 47 32.5 78.5t77.5 31.5q47 0 79 -31.5t32 -78.5v-2q0 -49 -19.5 -93.5t-52.5 -77t-78 -52t-94 -19.5v184z" />
<glyph unicode="-" horiz-adv-x="825" d="M51 440v185h723v-185h-723z" />
<glyph unicode="." horiz-adv-x="323" d="M51 111q0 47 32 78.5t79 31.5t78.5 -31.5t31.5 -78.5t-31.5 -79t-78.5 -32t-79 31.5t-32 79.5z" />
<glyph unicode="/" horiz-adv-x="1175" d="M51 0l860 1520h213l-862 -1520h-211z" />
<glyph unicode="0" horiz-adv-x="1122" d="M51 715q0 137 36 264t101 225q35 51 75 91t87 69q96 63 211 63t211 -63q47 -29 87 -69t75 -91q66 -98 101.5 -225t35.5 -264q0 -139 -36 -266t-101 -226q-35 -51 -75 -91t-87 -69q-96 -63 -211 -63t-211 63q-47 29 -87 69t-75 91q-66 98 -101.5 225t-35.5 267zM236 715 q0 -113 26.5 -212.5t79.5 -176.5q47 -68 103.5 -105t115.5 -37t115.5 37t103.5 105q51 78 79 177t28 212q0 111 -28 210t-79 177q-94 141 -219 141t-219 -141q-53 -78 -79.5 -177.5t-26.5 -209.5z" />
<glyph unicode="1" horiz-adv-x="589" d="M20 1255l353 172h166v-1427h-185v1212l-254 -122z" />
<glyph unicode="2" horiz-adv-x="921" d="M51 0v244l557 622l2 2q63 63 64 156q0 45 -17.5 85t-47 69.5t-69.5 47t-85 17.5q-74 0 -130.5 -43t-78.5 -108h-189q12 72 47 133t88.5 106t121 70.5t141.5 25.5q84 0 157.5 -31.5t128 -86t86 -128t31.5 -157.5q0 -80 -29.5 -152.5t-87.5 -130.5l-497 -557h626v-184h-819 z" />
<glyph unicode="3" horiz-adv-x="1040" d="M51 469h185q0 -59 22.5 -111.5t60 -90.5t90 -60.5t111.5 -22.5t111.5 22.5t90.5 60.5t60.5 90.5t22.5 111.5t-22.5 111.5t-60.5 90.5t-90 60.5t-112 22.5v184q63 0 108.5 45t45.5 109q0 63 -45 107t-109 44q-63 0 -107 -44t-44 -107h-185q0 70 27 130t72 106t106.5 72.5 t130.5 26.5q70 0 131.5 -26.5t107.5 -72.5t72.5 -106.5t26.5 -129.5q0 -66 -23.5 -123.5t-64.5 -102.5q23 -14 43.5 -30.5t38.5 -34.5q66 -66 101.5 -152t35.5 -180t-35.5 -180t-101.5 -152t-152 -101.5t-180 -35.5t-180 36t-152 101q-66 66 -101.5 152t-35.5 180z" />
<glyph unicode="4" horiz-adv-x="1101" d="M51 377v217l635 836h229v-869h136v-184h-136v-377h-184v377h-680zM258 561h473v625z" />
<glyph unicode="5" horiz-adv-x="1001" d="M51 449h185q0 -55 20 -103.5t56 -84.5t84 -56.5t104 -20.5q55 0 103 20.5t85 56.5t57.5 84t20.5 104q0 55 -20.5 103t-57.5 85t-85 57.5t-103 20.5h-385v192l108 520h635v-184h-485l-72 -344h199q92 0 173 -34t144 -99q66 -63 99.5 -144t33.5 -173q0 -90 -33.5 -171 t-99.5 -147q-63 -63 -144 -97t-173 -34q-90 0 -171 34t-147 97q-63 66 -97 146.5t-34 171.5z" />
<glyph unicode="6" horiz-adv-x="999" d="M51 449q0 88 35 174l309 804h197l-209 -544q60 16 117 16q92 0 173 -34t144 -99q66 -63 98.5 -144t32.5 -173q0 -90 -32.5 -171t-98.5 -147q-63 -63 -144 -97t-173 -34q-90 0 -171 34t-147 97q-63 66 -97 146.5t-34 171.5zM236 449q0 -55 20 -103.5t56 -84.5t84.5 -56.5 t103.5 -20.5t103 20.5t84 56.5t56.5 84t20.5 104q0 55 -20.5 103t-56.5 85t-84 57.5t-103 20.5t-103.5 -20.5t-84.5 -57.5t-56 -85t-20 -103z" />
<glyph unicode="7" horiz-adv-x="946" d="M51 0l647 1243h-647v184h844v-206l-635 -1221h-209z" />
<glyph unicode="8" horiz-adv-x="1040" d="M51 469q0 94 36 180t101 152q18 18 39 34.5t43 30.5q-41 45 -63.5 102.5t-22.5 123.5q0 70 27 130t72 106t106.5 72.5t130.5 26.5q70 0 131.5 -26.5t106.5 -72.5t71.5 -106.5t26.5 -129.5q0 -66 -22.5 -123.5t-63.5 -102.5q45 -28 82 -65q66 -66 101.5 -152t35.5 -180 t-35.5 -180t-101.5 -152t-152 -101.5t-180 -35.5t-180 36t-152 101q-66 66 -101.5 152t-35.5 180zM236 469q0 -59 22.5 -111.5t60 -90.5t90 -60.5t111.5 -22.5t111.5 22.5t90.5 60.5t60.5 90.5t22.5 111.5t-22.5 111.5t-60.5 90.5t-90 60.5t-112 22.5q-59 0 -111.5 -22.5 t-90 -60.5t-60 -90.5t-22.5 -111.5zM369 1092q0 -63 44 -108.5t107 -45.5t107.5 45t44.5 109q0 63 -44.5 107t-107.5 44t-107 -44t-44 -107z" />
<glyph unicode="9" horiz-adv-x="999" d="M51 979q0 90 34 171t97 146q66 63 147 97t171 34q92 0 173 -33.5t144 -97.5q66 -66 98.5 -146.5t32.5 -170.5q0 -94 -33 -174l-309 -805h-198l208 545q-59 -17 -116 -17q-90 0 -171 34t-147 100q-63 63 -97 144t-34 173zM236 979q0 -55 20 -103.5t56 -85t84 -57 t104 -20.5q55 0 103 20.5t84 57t56.5 85t20.5 103.5t-20.5 103t-56.5 84t-84 56.5t-103 20.5t-103.5 -20.5t-84.5 -56.5t-56 -84t-20 -103z" />
<glyph unicode=":" horiz-adv-x="323" d="M51 362q0 45 32 78t79 33t78.5 -32.5t31.5 -78.5q0 -47 -31.5 -78.5t-78.5 -31.5t-79 31.5t-32 78.5zM51 731q0 45 32 78t79 33t78.5 -33t31.5 -78q0 -47 -31.5 -78.5t-78.5 -31.5t-79 31.5t-32 78.5z" />
<glyph unicode=";" horiz-adv-x="346" d="M51 119v184q23 0 35 10q-12 20 -12 49q0 45 32.5 78t77.5 33q47 0 79 -31.5t32 -79.5v-2q0 -51 -19.5 -95t-52.5 -76.5t-78 -51t-94 -18.5zM74 731q0 45 32.5 78t77.5 33q47 0 79 -33t32 -78q0 -47 -32 -78.5t-79 -31.5q-45 0 -77.5 31.5t-32.5 78.5z" />
<glyph unicode="&#x3c;" horiz-adv-x="825" d="M51 481v129l723 355v-205l-438 -213l438 -215v-205z" />
<glyph unicode="=" horiz-adv-x="1038" d="M102 301v184h834v-184h-834zM102 670v184h834v-184h-834z" />
<glyph unicode="&#x3e;" horiz-adv-x="825" d="M51 127v205l436 215l-436 213v205l723 -355v-129z" />
<glyph unicode="?" horiz-adv-x="1036" d="M51 1092q6 84 41 157.5t94 132.5q66 66 151 102t179 36t180 -36t152 -102t101.5 -151.5t35.5 -179.5t-36 -179.5t-101 -150.5q-66 -66 -152 -101.5t-180 -35.5q-55 0 -95 -40t-40 -98h-184q0 68 25.5 126.5t68.5 101.5t101.5 68.5t123.5 25.5q59 0 111.5 22.5t90.5 60.5 t60.5 89t22.5 111q0 59 -22.5 111t-60.5 90t-90.5 60.5t-111.5 22.5q-53 0 -100 -18.5t-85 -51t-62.5 -77.5t-32.5 -96h-185zM178 111q0 47 32 78.5t79 31.5t78.5 -31.5t31.5 -78.5t-31.5 -79t-78.5 -32t-79 31.5t-32 79.5z" />
<glyph unicode="@" horiz-adv-x="2150" d="M51 578q0 209 80 399q78 184 219 326q141 137 326 219q190 80 399 80t400 -80q186 -82 323 -219q139 -140 221 -326q80 -190 80 -399q0 -143 -39 -279.5t-112 -257.5q-39 -61 -101.5 -97t-134.5 -36q-115 0 -196 82q-74 74 -78 178q-76 -66 -168 -101.5t-195 -35.5 q-111 0 -209 42t-176 120t-120 176t-42 209t42 209t120 176t176.5 118.5t208.5 40.5q111 0 209 -41t176 -118q78 -78 119 -176.5t41 -208.5v-31v-363q0 -39 26.5 -65.5t65.5 -26.5q51 0 78 45q61 98 93 211t32 230q0 168 -66 327q-63 147 -180 266q-115 115 -268 181 q-156 66 -326 65q-168 0 -327 -65q-74 -33 -140.5 -77t-126.5 -104q-59 -59 -103 -125.5t-77 -140.5q-66 -160 -65 -327q0 -168 65 -328q33 -74 77 -140.5t103 -125.5t126 -103.5t141 -77.5q160 -66 327 -65v-184q-209 0 -399 79q-184 82 -326 220q-141 141 -219 325 q-80 190 -80 400zM713 578q0 -74 28.5 -140.5t77.5 -116t115.5 -78t140.5 -28.5t139.5 28.5t114.5 78t78 116t29 140.5t-29 139t-78 114.5t-114.5 78t-139.5 28.5t-140.5 -28.5t-115.5 -78t-77.5 -115t-28.5 -138.5z" />
<glyph unicode="A" horiz-adv-x="1673" d="M51 0l680 1520h209l682 -1520h-203l-157 352h-850l-158 -352h-203zM494 537h686l-344 766z" />
<glyph unicode="B" horiz-adv-x="1306" d="M51 0v1520h649q82 0 156 -32t127 -85t85 -126t32 -155q0 -76 -25.5 -142.5t-73.5 -119.5q70 -31 121 -86q133 -133 133 -319q0 -188 -133 -322q-66 -66 -146.5 -99.5t-172.5 -33.5h-752zM236 184h567q55 0 104 21.5t85 58.5t57.5 86t21.5 105q0 55 -21.5 104t-57.5 85 t-85 57.5t-104 21.5h-567v-539zM236 907h464q45 0 84 16.5t68 46t46 68.5t17 84q0 43 -17 82t-46 69t-68 46t-84 16h-464v-428z" />
<glyph unicode="C" horiz-adv-x="1398" d="M51 760q0 154 60 295q57 135 163 241t242 164q141 59 295 60q154 0 295 -60q135 -57 242 -164l-129 -129q-82 82 -186.5 125t-221.5 43t-221.5 -43t-186.5 -125t-124.5 -186t-42.5 -221t43 -221.5t124 -186.5q82 -82 186.5 -125t221.5 -43t221.5 43t186.5 125l129 -129 q-106 -106 -242 -164q-141 -59 -295 -59t-295 59q-135 57 -242 164q-106 106 -163 242q-59 141 -60 295z" />
<glyph unicode="D" horiz-adv-x="1306" d="M51 0v1520h611q125 0 241 -64q105 -62 187 -168q80 -109 122.5 -244t42.5 -284q0 -150 -43 -285t-122 -244q-82 -106 -187 -168q-117 -63 -241 -63h-611zM236 184h426q78 0 150.5 41t129.5 117q63 84 96 191.5t33 226.5t-32.5 226.5t-96.5 191.5q-57 76 -130 116.5 t-150 40.5h-426v-1151z" />
<glyph unicode="E" horiz-adv-x="1058" d="M51 0v1520h910v-185h-725v-428h616v-184h-616v-539h772v-184h-865h-92z" />
<glyph unicode="F" horiz-adv-x="1122" d="M51 0v1520h1020v-185h-835v-428h679v-184h-679v-723h-185z" />
<glyph unicode="G" horiz-adv-x="1662" d="M72 760q0 154 59 295q57 135 164 241q106 106 242 164q141 59 294 60q154 0 295 -60q135 -57 242 -164l-129 -129q-82 82 -186.5 125t-221.5 43t-221 -43t-186 -125t-125 -186t-43 -221t43 -221.5t125 -186.5t186.5 -125t220.5 -43q117 0 221.5 43t186.5 125 q131 135 160 316h-568v184h760v-92v-760h-184v264q-10 -10 -19.5 -20.5t-19.5 -20.5q-106 -106 -242 -164q-141 -59 -295 -59t-294 59q-135 57 -242 164q-106 106 -164 242q-59 141 -59 295z" />
<glyph unicode="H" horiz-adv-x="1306" d="M51 0v1513h185v-612h835v612h184v-1519h-184v723h-835v-717h-185z" />
<glyph unicode="I" horiz-adv-x="389" d="M102 0v1520h185v-1520h-185z" />
<glyph unicode="J" horiz-adv-x="991" d="M51 328l176 51q27 -88 97 -139q70 -55 161 -56q55 0 104.5 21.5t86.5 58.5t58.5 86t21.5 105v1083h184v-1083q0 -188 -133 -322q-66 -66 -148 -99.5t-174 -33.5q-76 0 -145.5 23.5t-128.5 68.5q-57 45 -98 105.5t-62 130.5z" />
<glyph unicode="K" horiz-adv-x="1357" d="M102 0v1520h185v-584l696 584h287l-842 -707l909 -813h-276l-774 692v-692h-185z" />
<glyph unicode="L" horiz-adv-x="1058" d="M51 0v1520h185v-1336h772v-184h-865h-92z" />
<glyph unicode="M" horiz-adv-x="2097" d="M31 0l461 1520h192l365 -1203l364 1203h193l460 -1520h-192l-365 1202l-364 -1202h-193l-364 1202l-365 -1202h-192z" />
<glyph unicode="N" horiz-adv-x="1337" d="M51 0v1520h205l846 -1225v1225h184v-1520h-203l-847 1225v-1225h-185z" />
<glyph unicode="O" horiz-adv-x="1622" d="M51 760q0 154 60 295q57 135 163 241t242 164q141 59 295 60q154 0 295 -60q135 -57 242 -164q106 -106 163 -241q59 -141 60 -295q0 -154 -60 -295q-57 -135 -163 -242q-106 -106 -242 -164q-141 -59 -295 -59t-295 59q-135 57 -242 164q-106 106 -163 242 q-59 141 -60 295zM236 760q0 -117 43 -221.5t124 -186.5q82 -82 186.5 -125t221.5 -43t221.5 43t186.5 125t124.5 186.5t42.5 221.5t-43 221t-124 186q-82 82 -186.5 125t-221.5 43t-221.5 -43t-186.5 -125t-124.5 -186t-42.5 -221z" />
<glyph unicode="P" horiz-adv-x="1214" d="M51 0v1520h660q186 -1 319 -134t133 -319q0 -188 -133 -322q-66 -66 -146.5 -99.5t-172.5 -33.5h-475v-612h-185zM236 797h475q55 0 104 21.5t85 58t57.5 86t21.5 104.5t-21.5 104.5t-57.5 85t-85 57t-104 21.5h-475v-538z" />
<glyph unicode="Q" horiz-adv-x="1591" d="M51 760q0 154 60 295q57 135 163 241t242 164q141 59 295 60q154 0 295 -60q135 -57 242 -164q106 -106 163 -241q59 -141 60 -295q-1 -154 -60 -295q-57 -135 -163 -242l-25 -24l166 -164l-131 -129l-187 184q-12 -6 -23 -12t-24 -10l-9 -4.5l-9 -4.5q-141 -59 -295 -59 t-295 59q-20 10 -39.5 19.5t-38.5 19.5q-86 47 -164 125q-106 106 -163 242q-59 141 -60 295zM236 760q0 -117 43 -221.5t124 -186.5q82 -82 186.5 -125t221.5 -43q115 0 223 45l-151 152l131 129l180 -180q6 6 12 11t13 11q82 82 124.5 186.5t42.5 221.5t-43 221t-124 186 q-82 82 -186.5 125t-221.5 43t-221.5 -43t-186.5 -125t-124.5 -186t-42.5 -221z" />
<glyph unicode="R" horiz-adv-x="1234" d="M51 0v1520h660q186 0 319 -134q133 -133 133 -319q0 -188 -133 -322q-57 -57 -129 -90.5t-151 -40.5l434 -614h-226l-434 612h-288v-612h-185zM236 797h475q55 0 104 21.5t85 58t57.5 86t21.5 104.5t-21.5 104.5t-57.5 85t-85 57t-104 21.5h-475v-538z" />
<glyph unicode="S" horiz-adv-x="1220" d="M51 440h185q0 -100 100 -172q53 -41 124.5 -62.5t149.5 -21.5t149.5 21.5t127.5 62.5q98 74 98 172q0 102 -86 170q-35 29 -104.5 55.5t-188.5 32.5h-2q-98 8 -183 38t-151 81q-151 116 -151 289q0 94 41 170q41 78 110 131q70 53 157 83t183 30q98 0 185.5 -30 t154.5 -83q70 -53 111 -131q43 -80 43 -168h-184q0 43 -21.5 83t-62.5 71q-91 73 -222 73h-4q-133 0 -225 -73q-82 -63 -82 -154q0 -51 25.5 -87t54.5 -58q92 -70 233 -80q123 -6 223.5 -38t172.5 -89q78 -59 117.5 -140t39.5 -176q0 -92 -47 -180q-47 -80 -127 -139 q-78 -59 -176 -90t-209 -31q-109 0 -208 30.5t-177 90.5q-82 59 -125 139q-49 86 -49 180z" />
<glyph unicode="T" horiz-adv-x="1306" d="M51 1335v185h1204v-185h-510v-1335h-184v1335h-510z" />
<glyph unicode="U" horiz-adv-x="1404" d="M51 651v869h185v-869q0 -94 35.5 -179t101.5 -150q66 -66 150.5 -102t178.5 -36t179.5 36t150.5 102q66 66 101.5 150.5t35.5 178.5v869h185v-869q0 -137 -51 -254q-49 -117 -140 -207q-90 -90 -207 -139q-117 -51 -254 -51t-253 51q-117 49 -207 139t-140 207 q-51 117 -51 254z" />
<glyph unicode="V" horiz-adv-x="1490" d="M51 1520h199l495 -1268l496 1268h199l-596 -1520h-197z" />
<glyph unicode="W" horiz-adv-x="2344" d="M51 1520h199l495 -1268l328 840h199l327 -840l498 1268h197l-594 -1520h-199l-327 840l-330 -840h-197z" />
<glyph unicode="X" horiz-adv-x="1269" d="M51 1520h217l367 -590l366 590h218l-476 -766l469 -754h-217l-360 580l-361 -580h-217l469 754z" />
<glyph unicode="Y" horiz-adv-x="1337" d="M51 1520h228l389 -545l391 545h227l-526 -734v-786h-185v786z" />
<glyph unicode="Z" horiz-adv-x="1337" d="M51 0v219l1018 1116h-1018v185h1235v-220l-1018 -1116h1018v-184h-1235z" />
<glyph unicode="[" horiz-adv-x="530" d="M102 -446v2048h398v-185h-213v-1679h213v-184h-398z" />
<glyph unicode="\" horiz-adv-x="1175" d="M51 1520h211l862 -1520h-213z" />
<glyph unicode="]" horiz-adv-x="530" d="M31 -262h213v1679h-213v185h397v-2048h-397v184z" />
<glyph unicode="^" horiz-adv-x="632" d="M51 1300l154 220h223l154 -220h-226l-41 60l-39 -60h-225z" />
<glyph unicode="_" horiz-adv-x="1183" d="M51 0h1082v-184h-1082v184z" />
<glyph unicode="`" horiz-adv-x="675" d="M264 1518h225l154 -218h-225z" />
<glyph unicode="a" d="M51 547q0 111 41 209t119 176t176 119t209 41q102 0 194.5 -36t167.5 -102v138h185v-1092h-185v137q-76 -66 -168 -101.5t-194 -35.5q-111 0 -209 41t-176 119t-119 177t-41 210zM236 547q0 -76 28.5 -141.5t77.5 -114.5t114.5 -78t139.5 -29q76 0 141.5 29t114.5 78 t77.5 114.5t28.5 141.5q0 74 -28.5 139.5t-77.5 114.5t-114.5 77.5t-141.5 28.5q-74 0 -139.5 -28.5t-114.5 -77.5t-77.5 -114.5t-28.5 -139.5z" />
<glyph unicode="b" horiz-adv-x="1214" d="M72 0v1602h184v-648q76 66 168 102t192 36q111 0 210.5 -41t177.5 -119t118.5 -176.5t40.5 -208.5q0 -111 -41 -210t-118 -177q-78 -78 -177.5 -119t-210.5 -41q-100 0 -192 36t-168 101v-137h-184zM256 547q0 -76 28.5 -141.5t78 -114.5t114.5 -78t139 -29 q76 0 141.5 29t115 78t78 114.5t28.5 141.5q0 74 -28.5 139.5t-78 114.5t-115 77.5t-141.5 28.5q-74 0 -139 -28.5t-114.5 -77.5t-78 -114.5t-28.5 -139.5z" />
<glyph unicode="c" horiz-adv-x="1034" d="M51 547q0 111 41 209t119 176t176 119t209 41t210 -41t177 -119l-131 -131q-51 53 -116.5 79.5t-139.5 26.5t-139.5 -28.5t-114.5 -77.5t-77.5 -114.5t-28.5 -139.5q0 -76 28.5 -141.5t77.5 -114.5t114.5 -78t139.5 -29t139.5 27t116.5 80l131 -131q-78 -78 -177 -119 t-210 -41t-209 41t-176 119t-119 177t-41 210z" />
<glyph unicode="d" d="M51 547q0 111 41 209t119 176t176 119t209 41q102 0 194.5 -36t167.5 -102v648h185v-1602h-185v137q-76 -66 -168 -101.5t-194 -35.5q-111 0 -209 41t-176 119t-119 177t-41 210zM236 547q0 -76 28.5 -141.5t77.5 -114.5t114.5 -78t139.5 -29q76 0 141.5 29t114.5 78 t77.5 114.5t28.5 141.5q0 74 -28.5 139.5t-77.5 114.5t-114.5 77.5t-141.5 28.5q-74 0 -139.5 -28.5t-114.5 -77.5t-77.5 -114.5t-28.5 -139.5z" />
<glyph unicode="e" d="M51 547q0 111 41 209t119 176t176 119t209 41t210 -41t177 -119t119 -176.5t41 -208.5v-92h-895q14 -59 48 -108.5t80 -85.5t102.5 -56.5t117.5 -20.5q90 0 168 41q76 41 125 109l149 -109q-76 -104 -188 -164q-117 -61 -254 -61q-111 0 -209 41t-176 119t-119 177 t-41 210zM248 639h698q-16 57 -49 106.5t-79 85t-102.5 56t-119.5 20.5q-61 0 -117.5 -20.5t-102.5 -56t-80 -85t-48 -106.5z" />
<glyph unicode="f" horiz-adv-x="802" d="M51 907v185h135v55q0 92 34 174t99 147q134 134 320 134q115 0 215 -54l-86 -164q-59 33 -129 33q-55 0 -104.5 -21.5t-85 -58.5t-57 -86t-21.5 -104v-55h247v-185h-247v-907h-185v907h-135z" />
<glyph unicode="g" horiz-adv-x="1255" d="M61 547q0 111 41 209t119 176t176.5 119t208.5 41q102 0 194.5 -36t168.5 -102v138h184v-992q0 -111 -41 -210t-119 -177t-177 -118.5t-210 -40.5q-66 0 -129 15t-123 46q-113 59 -188 164l147 108q53 -68 127 -108q78 -41 166 -41q76 0 141.5 28.5t114.5 78t78 115 t29 140.5v37q-76 -66 -168 -101.5t-195 -35.5q-111 0 -209 41t-176 119t-119 177t-41 210zM246 547q0 -76 28.5 -141.5t77.5 -114.5t114.5 -78t139.5 -29q76 0 141.5 29t114.5 78t78 114.5t29 139.5v2q0 74 -29 139.5t-78 114.5t-114.5 77.5t-141.5 28.5q-74 0 -139.5 -28.5 t-114.5 -77.5t-77.5 -114.5t-28.5 -139.5z" />
<glyph unicode="h" horiz-adv-x="1112" d="M102 0v1602h185v-598q119 88 268 88q92 0 174 -34t148 -100t99.5 -146.5t33.5 -172.5v-639h-185v639q0 55 -21.5 104.5t-58 85t-86 57t-104.5 21.5t-104.5 -21.5t-85 -57t-57 -85t-21.5 -104.5v-639h-185z" />
<glyph unicode="i" horiz-adv-x="425" d="M102 1409q0 47 32 79t79 32t79 -32t32 -79t-32 -79t-79 -32t-79 32t-32 79zM121 0v1092h184v-1092h-184z" />
<glyph unicode="j" horiz-adv-x="704" d="M-305 -119l176 51q27 -88 96 -139q70 -55 162 -55q55 0 104.5 21.5t86 58.5t58 86t21.5 104v1084h185v-1084q0 -188 -133 -321t-322 -133q-76 0 -145.5 23.5t-128.5 68.5q-57 45 -98.5 105.5t-61.5 129.5zM381 1409q0 47 31.5 79t79.5 32q47 0 78.5 -32t31.5 -79 t-31.5 -79t-78.5 -32t-79 32t-32 79z" />
<glyph unicode="k" horiz-adv-x="1073" d="M102 0v1602h185v-838l391 328h287l-537 -451l717 -641h-277l-581 520v-520h-185z" />
<glyph unicode="l" horiz-adv-x="389" d="M102 0v1602h185v-1602h-185z" />
<glyph unicode="m" horiz-adv-x="1732" d="M51 0v1092h185v-88q119 88 268 88q92 0 174 -34t147 -100q23 -23 41 -47q18 25 41 47q133 133 320 134q92 0 173.5 -34t147.5 -100q133 -133 133 -319v-639h-184v639q0 55 -21.5 104.5t-58.5 85t-86 57t-104 21.5t-104.5 -21.5t-85.5 -57t-57.5 -85t-21.5 -104.5v-639 h-184v639q0 55 -21.5 104.5t-58.5 85t-86 57t-104 21.5t-104.5 -21.5t-85 -57t-57 -85t-21.5 -104.5v-639h-185z" />
<glyph unicode="n" horiz-adv-x="1030" d="M72 0v1092h184v-88q119 88 268 88q92 0 174 -34t148 -100t99.5 -146.5t33.5 -172.5v-639h-184v639q0 55 -21.5 104.5t-58.5 85t-86 57t-105 21.5q-55 0 -104 -21.5t-85 -57t-57.5 -85t-21.5 -104.5v-639h-184z" />
<glyph unicode="o" d="M51 547q0 111 41 209t119 176t176 119t209 41t210 -41t177 -119t119 -176.5t41 -208.5q0 -111 -41 -210t-119 -177t-177 -119t-210 -41t-209 41t-176 119t-119 177t-41 210zM236 547q0 -76 28.5 -141.5t77.5 -114.5t114.5 -78t139.5 -29q76 0 141.5 29t114.5 78 t77.5 114.5t28.5 141.5q0 74 -28.5 139.5t-77.5 114.5t-114.5 77.5t-141.5 28.5q-74 0 -139.5 -28.5t-114.5 -77.5t-77.5 -114.5t-28.5 -139.5z" />
<glyph unicode="p" d="M51 -446v1538h185v-138q76 66 168 102t192 36q111 0 210 -41t177 -119t119 -176.5t41 -208.5q0 -111 -41 -210t-119 -177t-177 -119t-210 -41q-100 0 -192.5 36t-167.5 101v-583h-185zM236 547q0 -76 28.5 -141.5t77.5 -114.5t114.5 -78t139.5 -29q76 0 141.5 29 t114.5 78t77.5 114.5t28.5 141.5q0 74 -28.5 139.5t-77.5 114.5t-114.5 77.5t-141.5 28.5q-74 0 -139.5 -28.5t-114.5 -77.5t-77.5 -114.5t-28.5 -139.5z" />
<glyph unicode="q" horiz-adv-x="1296" d="M102 547q0 111 41 209t119 176t176.5 119t208.5 41q102 0 194.5 -36t168.5 -102v138h184v-1538h-184v583q-76 -66 -168 -101.5t-195 -35.5q-111 0 -209 41t-176 119t-119 177t-41 210zM287 547q0 -76 28.5 -141.5t77.5 -114.5t114.5 -78t139.5 -29q76 0 141.5 29 t114.5 78t78 114.5t29 141.5q0 74 -29 139.5t-78 114.5t-114.5 77.5t-141.5 28.5q-74 0 -139.5 -28.5t-114.5 -77.5t-77.5 -114.5t-28.5 -139.5z" />
<glyph unicode="r" horiz-adv-x="888" d="M102 0v1092h185v-138q39 37 86 62q117 70 248 76q13 1 26 1q115 0 221 -49l-73 -167q-68 31 -143 31q-11 0 -21 -1q-90 -6 -166 -49q-86 -51 -131 -133q-47 -84 -47 -176v-549h-185z" />
<glyph unicode="s" horiz-adv-x="921" d="M51 330h185q0 -35 19 -58.5t36 -35.5q70 -51 170 -52q100 0 170 52q16 12 35.5 35.5t19.5 58.5q0 55 -47 90q-23 16 -66 33.5t-116 21.5h-2q-141 10 -244 86q-115 90 -115 221q0 66 30 124.5t85 101.5q51 41 114.5 62.5t135.5 21.5t135 -21.5t115 -62.5 q55 -43 84.5 -101.5t29.5 -124.5h-184q0 51 -53 88t-127 37t-127 -36.5t-53 -88.5q0 -47 53 -82.5t133 -40.5q174 -10 285 -92q57 -45 87.5 -105.5t30.5 -131.5q0 -74 -36 -137q-35 -61 -93 -105q-57 -43 -129.5 -65.5t-150.5 -22.5t-150.5 22.5t-130.5 65.5q-59 43 -92 105 q-37 63 -37 137z" />
<glyph unicode="t" horiz-adv-x="618" d="M51 907v185h135v510h185v-510h247v-185h-247v-907h-185v907h-135z" />
<glyph unicode="u" horiz-adv-x="1114" d="M102 455v637h185v-637q0 -55 21.5 -104.5t57 -86.5t85 -58.5t104.5 -21.5t104.5 21.5t86 58.5t58 86t21.5 105v637h185v-1092h-185v88q-119 -88 -270 -88q-186 0 -319 133q-66 66 -100 147.5t-34 174.5z" />
<glyph unicode="v" horiz-adv-x="1157" d="M51 1092h199l328 -840l329 840h199l-428 -1092h-199z" />
<glyph unicode="w" horiz-adv-x="1929" d="M10 1092h199l328 -840l327 840h199l330 -840l327 840h199l-428 -1092h-199l-327 840l-330 -840h-197z" />
<glyph unicode="x" horiz-adv-x="1073" d="M31 0l391 547l-391 545h227l279 -387l278 387h227l-393 -545l393 -547h-227l-278 387l-279 -387h-227z" />
<glyph unicode="y" horiz-adv-x="1155" d="M51 1092h199l328 -840l327 840h199l-602 -1538h-199l176 446z" />
<glyph unicode="z" horiz-adv-x="999" d="M51 0v190l654 717h-625v185h868v-191l-653 -717h625v-184h-869z" />
<glyph unicode="{" horiz-adv-x="612" d="M102 485v185q25 0 43.5 17.5t18.5 43.5v473q0 82 31.5 155t85 126t126 85t154.5 32v-185q-45 0 -84 -16.5t-67.5 -46t-45 -68.5t-16.5 -82v-473q0 -88 -55 -153q55 -68 55 -154v-473q0 -43 16.5 -82t45 -68.5t67.5 -46t84 -16.5v-184q-82 0 -154.5 31.5t-126 85t-85 126 t-31.5 154.5v473q0 27 -18.5 44t-43.5 17z" />
<glyph unicode="|" horiz-adv-x="389" d="M102 -446v2048h185v-2048h-185z" />
<glyph unicode="}" horiz-adv-x="612" d="M51 -262q43 0 82 16.5t68.5 46t46 68.5t16.5 82v473q0 45 14.5 83t38.5 71q-53 66 -53 153v473q0 43 -16.5 82t-46 68.5t-68.5 46t-82 16.5v185q82 0 155 -32t126 -85t85 -126t32 -155v-473q0 -27 18 -44t43 -17v-185q-25 0 -43 -17t-18 -44v-473q0 -82 -32 -154.5 t-85 -126t-126 -85t-155 -31.5v184z" />
<glyph unicode="~" horiz-adv-x="825" d="M51 455v184q59 -47 119.5 -51t121 10t121 41t121 41t121 9t119.5 -50v-184q-61 45 -120.5 51t-120 -9.5t-121 -42t-121 -41t-120.5 -10t-120 51.5z" />
<glyph unicode="&#xa1;" horiz-adv-x="430" d="M102 -446l21 1077h184l21 -1077h-226zM104 963q0 47 32 78.5t79 31.5t79 -31.5t32 -78.5t-32 -79t-79 -32t-79 32t-32 79z" />
<glyph unicode="&#xa2;" horiz-adv-x="925" d="M72 547q0 92 33.5 175t99.5 148q51 51 113.5 83t132.5 44v95h184v-101q127 -29 219 -121l-131 -131q-37 41 -88 60v-506q51 18 88 59l131 -131q-92 -92 -219 -121v-100h-184v94q-70 12 -132.5 44t-111.5 83q-66 66 -100.5 150t-34.5 176zM256 547q0 -94 54.5 -166 t140.5 -98v526q-86 -27 -140.5 -98.5t-54.5 -163.5z" />
<glyph unicode="&#xa3;" horiz-adv-x="1095" d="M51 0v184q43 0 82 16.5t67.5 45t45 67.5t16.5 84v244h-211v184h211v58q0 111 41 209t119 176t177 118.5t210 40.5v-184q-74 0 -140.5 -28.5t-115.5 -78t-78 -115t-29 -138.5v-58h355v-184h-355v-244q0 -117 -61 -213h342q53 0 93 39t40 94h184q0 -66 -25.5 -123 t-68.5 -100t-100 -68.5t-123 -25.5h-676z" />
<glyph unicode="&#xa4;" horiz-adv-x="1071" d="M102 244l95 94q-29 45 -44.5 97t-15.5 112q0 57 15.5 109.5t44.5 97.5l-95 94l131 131l95 -94q45 29 97 44t110 15q57 0 109 -15.5t99 -43.5l95 94l131 -131l-95 -94q58 -92 58 -207q0 -117 -58 -209l95 -94l-131 -131l-95 94q-47 -29 -99 -44.5t-109 -15.5t-109.5 15.5 t-97.5 44.5l-95 -94zM322 547q0 -45 16 -84t46 -68.5t69 -46t82 -16.5q45 0 83.5 16.5t67.5 46t45.5 68.5t16.5 84q0 43 -16.5 82t-45.5 68.5t-67.5 46t-83.5 16.5q-43 0 -82 -16.5t-69 -46t-46 -68.5t-16 -82z" />
<glyph unicode="&#xa5;" horiz-adv-x="1206" d="M51 1427h228l323 -452l326 452h227l-446 -620h161v-184h-176v-93h176v-184h-176v-346h-184v346h-174v184h174v93h-174v184h160z" />
<glyph unicode="&#xa6;" horiz-adv-x="389" d="M102 217h185v-663h-185v663zM102 938v664h185v-664h-185z" />
<glyph unicode="&#xa8;" horiz-adv-x="757" d="M102 1409q0 47 33 79t78 32q47 0 79 -32t32 -79t-32 -79t-79 -32q-45 0 -78 32t-33 79zM434 1409q0 47 33 79t78 32q47 0 78.5 -32t31.5 -79t-31.5 -79t-78.5 -32q-45 0 -78 32t-33 79z" />
<glyph unicode="&#xaa;" horiz-adv-x="770" d="M102 1237q0 57 22.5 109.5t60.5 90.5t89.5 60.5t110.5 22.5t119 -27v27h164v-566h-164v27q-59 -27 -119 -27q-59 0 -110.5 22.5t-89.5 60.5t-60.5 89.5t-22.5 110.5zM266 1237q0 -49 35 -84t84 -35t84 35t35 84t-35 84t-84 35t-84 -35t-35 -84z" />
<glyph unicode="&#xab;" horiz-adv-x="1480" d="M51 481v129l723 355v-205l-438 -213l438 -215v-205zM707 481v129l723 355v-205l-439 -213l439 -215v-205z" />
<glyph unicode="&#xac;" horiz-adv-x="917" d="M102 440v185h713v-353h-184v168h-529z" />
<glyph unicode="&#xad;" horiz-adv-x="825" d="M51 440v185h723v-185h-723z" />
<glyph unicode="&#xb0;" horiz-adv-x="770" d="M102 1237q0 57 22.5 109.5t60.5 90.5t89.5 60.5t110.5 22.5q57 0 109.5 -22.5t90.5 -60.5t60.5 -90.5t22.5 -109.5q0 -59 -22.5 -110.5t-60.5 -89.5t-90.5 -60.5t-109.5 -22.5q-59 0 -110.5 22.5t-89.5 60.5t-60.5 89.5t-22.5 110.5zM266 1237q0 -49 35 -84t84 -35t84 35 t35 84t-35 84t-84 35t-84 -35t-35 -84z" />
<glyph unicode="&#xb1;" horiz-adv-x="927" d="M102 0v184h723v-184h-723zM102 639v184h269v269h184v-269h270v-184h-270v-270h-184v270h-269z" />
<glyph unicode="&#xb2;" horiz-adv-x="368" d="M102 1235v47l111 125h2q12 12 12 33q0 16 -13 29.5t-32 13.5q-31 0 -41 -31h-37q4 29 27 48.5t51 19.5q35 0 58.5 -23.5t23.5 -56.5q0 -37 -24 -58l-99 -110h125v-37h-164z" />
<glyph unicode="&#xb3;" horiz-adv-x="393" d="M102 1327h37q0 -23 16.5 -39t41.5 -16q23 0 40 16.5t17 38.5q0 25 -17.5 41t-39.5 16v37q12 0 21 9.5t9 21.5t-9 21.5t-21 9.5t-21.5 -9.5t-9.5 -21.5h-37q0 29 19.5 48.5t48.5 19.5t48 -19.5t19 -48.5q0 -27 -18 -45q12 -8 16 -12q29 -29 29 -68q0 -37 -29 -65 q-25 -27 -65 -27q-41 0 -68 27q-27 31 -27 65z" />
<glyph unicode="&#xb4;" horiz-adv-x="583" d="M102 1300l154 218h225l-153 -218h-226z" />
<glyph unicode="&#xb5;" horiz-adv-x="1112" d="M102 -446v901v637h185v-138v-499q0 -55 21.5 -104.5t57 -86.5t85 -58.5t104.5 -21.5t104.5 21.5t86 58.5t58 86t21.5 105v637h185v-1092h-185v88q-119 -88 -270 -88q-150 0 -268 88v-494v-40h-185z" />
<glyph unicode="&#xb6;" horiz-adv-x="1386" d="M51 1116q0 84 32 158t86 128t128 86t158 32h880v-185h-231v-1335h-184v1335h-281v-1335h-184v713q-84 0 -158 31.5t-128 86t-86 128t-32 157.5z" />
<glyph unicode="&#xb7;" horiz-adv-x="514" d="M102 547q0 66 45.5 109.5t110.5 43.5q66 0 110 -44t44 -109q0 -66 -44 -111t-110 -45t-111 45t-45 111z" />
<glyph unicode="&#xb8;" horiz-adv-x="641" d="M51 -176h185q0 -35 24.5 -60.5t58.5 -25.5q35 0 61 25.5t26 60.5t-25 59l-2 2l-129 146h246l18 -21q37 -37 56.5 -85t19.5 -101q0 -55 -21.5 -104.5t-58.5 -86t-86 -58t-105 -21.5q-55 0 -104 21.5t-85 58t-57.5 86t-21.5 104.5z" />
<glyph unicode="&#xb9;" horiz-adv-x="309" d="M102 1485l70 35h35v-285h-37v242l-51 -25z" />
<glyph unicode="&#xba;" horiz-adv-x="770" d="M102 1237q0 57 22.5 109.5t60.5 90.5t89.5 60.5t110.5 22.5q57 0 109.5 -22.5t90.5 -60.5t60.5 -90.5t22.5 -109.5q0 -59 -22.5 -110.5t-60.5 -89.5t-90.5 -60.5t-109.5 -22.5q-59 0 -110.5 22.5t-89.5 60.5t-60.5 89.5t-22.5 110.5zM266 1237q0 -49 35 -84t84 -35t84 35 t35 84t-35 84t-84 35t-84 -35t-35 -84z" />
<glyph unicode="&#xbb;" horiz-adv-x="1480" d="M51 127v205l438 215l-438 213v205l723 -355v-129zM707 127v205l438 215l-438 213v205l723 -355v-129z" />
<glyph unicode="&#xbf;" horiz-adv-x="1036" d="M51 41q0 94 35 179t102 151q66 66 151 101.5t179 35.5q57 0 97 40t40 97h185q0 -68 -26 -126t-69 -101t-101 -68.5t-126 -25.5q-59 0 -110.5 -22.5t-89 -60.5t-60 -90.5t-22.5 -109.5q0 -59 22.5 -111.5t60 -90.5t89 -60.5t110.5 -22.5q53 0 101.5 18.5t86 51.5t62.5 78 t31 96h186q-6 -84 -41 -157.5t-94 -133.5q-66 -66 -152 -101.5t-180 -35.5t-179 35.5t-151 101.5q-68 66 -102.5 151t-34.5 181zM637 981q0 47 31.5 79t79.5 32q47 0 78.5 -32t31.5 -79t-31.5 -79t-78.5 -32t-79 32t-32 79z" />
<glyph unicode="&#xc0;" horiz-adv-x="1673" d="M51 0h203l158 352h850l157 -352h203l-682 1520h-209zM494 537l342 766l344 -766h-686zM649 1946h223l154 -217h-225z" />
<glyph unicode="&#xc1;" horiz-adv-x="1673" d="M51 0l680 1520h209l682 -1520h-203l-157 352h-850l-158 -352h-203zM494 537h686l-344 766zM649 1729l152 217h225l-154 -217h-223z" />
<glyph unicode="&#xc2;" horiz-adv-x="1673" d="M51 0l680 1520h209l682 -1520h-203l-157 352h-850l-158 -352h-203zM494 537h686l-344 766zM571 1729l154 219h225l154 -219h-225l-41 59l-41 -59h-226z" />
<glyph unicode="&#xc3;" horiz-adv-x="1673" d="M51 0h203l158 352h850l157 -352h203l-682 1520h-209zM494 537l342 766l344 -766h-686zM612 1763v185q98 0 155.5 -15.5t102.5 -31.5q39 -14 80 -24.5t113 -10.5v-185q-96 0 -153.5 15.5t-102.5 32.5q-39 14 -80 24t-115 10z" />
<glyph unicode="&#xc4;" horiz-adv-x="1673" d="M51 0l680 1520h209l682 -1520h-203l-157 352h-850l-158 -352h-203zM494 537h686l-344 766zM561 1837q0 47 32 79t79 32t78.5 -32t31.5 -79t-31.5 -79t-78.5 -32t-79 32t-32 79zM893 1837q0 47 31.5 79t79.5 32q47 0 78.5 -32t31.5 -79t-31.5 -79t-78.5 -32t-79 32t-32 79 z" />
<glyph unicode="&#xc5;" horiz-adv-x="1673" d="M51 0h203l158 352h850l157 -352h203l-682 1520h-209zM494 537l342 766l344 -766h-686zM641 1923q0 39 15.5 75t42 62.5t61.5 42t76 15.5t76.5 -15.5t61 -42t41 -62.5t15.5 -75q0 -41 -15.5 -76t-41 -61.5t-61 -41.5t-76.5 -15t-76 15t-61.5 41.5t-42 61.5t-15.5 76z M756 1923q0 -35 22.5 -58.5t57.5 -23.5t58.5 23.5t23.5 58.5t-23.5 58.5t-58.5 23.5t-57.5 -23.5t-22.5 -58.5z" />
<glyph unicode="&#xc6;" horiz-adv-x="1998" d="M51 0l680 1520h1172v-185h-883v-428h772v-184h-772v-539h928v-184h-1112v352h-424l-158 -352h-203zM494 537h342v763v3z" />
<glyph unicode="&#xc7;" horiz-adv-x="1398" d="M51 760q0 154 60 295q57 135 163 241t242 164q141 59 295 60q154 0 295 -60q135 -57 242 -164l-129 -129q-82 82 -186.5 125t-221.5 43t-221.5 -43t-186.5 -125t-124.5 -186t-42.5 -221t43 -221.5t124 -186.5q82 -82 186.5 -125t221.5 -43t221.5 43t186.5 125l129 -129 q-106 -106 -242 -164q-49 -20 -109 -36l11 -13q37 -37 56 -85t19 -101q0 -55 -21.5 -104.5t-57 -86t-85 -58t-104.5 -21.5t-104 21.5t-86 58t-58.5 86t-21.5 104.5h184q0 -35 25.5 -60.5t60.5 -25.5t59.5 25.5t24.5 60.5t-25 59l-2 2l-100 115q-66 4 -131.5 18.5 t-124.5 40.5q-135 57 -242 164q-106 106 -163 242q-59 141 -60 295z" />
<glyph unicode="&#xc8;" horiz-adv-x="1058" d="M51 0h92h865v184h-772v539h616v184h-616v428h725v185h-910v-1520zM342 1946h223l154 -217h-225z" />
<glyph unicode="&#xc9;" horiz-adv-x="1058" d="M51 0v1520h910v-185h-725v-428h616v-184h-616v-539h772v-184h-865h-92zM342 1729l152 217h225l-154 -217h-223z" />
<glyph unicode="&#xca;" horiz-adv-x="1058" d="M51 0v1520h910v-185h-725v-428h616v-184h-616v-539h772v-184h-865h-92zM264 1729l154 219h225l154 -219h-226l-41 59l-41 -59h-225z" />
<glyph unicode="&#xcb;" horiz-adv-x="1058" d="M51 0v1520h910v-185h-725v-428h616v-184h-616v-539h772v-184h-865h-92zM254 1837q0 47 31.5 79t79.5 32q47 0 78.5 -32t31.5 -79t-31.5 -79t-78.5 -32t-79 32t-32 79zM586 1837q0 47 31.5 79t78.5 32t79 -32t32 -79t-32 -79t-79 -32t-78.5 32t-31.5 79z" />
<glyph unicode="&#xcc;" horiz-adv-x="481" d="M51 1946h225l154 -217h-225zM246 0v1520h184v-1520h-184z" />
<glyph unicode="&#xcd;" horiz-adv-x="481" d="M51 0v1520h185v-1520h-185zM51 1729l154 217h225l-154 -217h-225z" />
<glyph unicode="&#xce;" horiz-adv-x="632" d="M51 1729l154 219h225l152 -219h-224l-41 59l-41 -59h-225zM225 0v1520h185v-1520h-185z" />
<glyph unicode="&#xcf;" horiz-adv-x="655" d="M51 1837q0 47 32 79t79 32t78.5 -32t31.5 -79t-31.5 -79t-78.5 -32t-79 32t-32 79zM236 0v1520h184v-1520h-184zM383 1837q0 47 31.5 79t79.5 32q47 0 78.5 -32t31.5 -79t-31.5 -79t-78.5 -32t-79 32t-32 79z" />
<glyph unicode="&#xd0;" horiz-adv-x="1417" d="M51 668v184h111v668h610q125 0 242 -64q104 -62 186 -168q80 -109 123 -244t43 -284q0 -150 -43 -285t-123 -244q-82 -106 -186 -168q-117 -63 -242 -63h-610v668h-111zM346 184h426q78 0 151 41t130 117q63 84 96 191.5t33 226.5t-33 226.5t-96 191.5q-57 76 -130 116.5 t-151 40.5h-426v-483h156v-184h-156v-484z" />
<glyph unicode="&#xd1;" horiz-adv-x="1337" d="M51 0h185v1225l847 -1225h203v1520h-184v-1225l-846 1225h-205v-1520zM442 1763v185q98 0 155.5 -15.5t102.5 -31.5q39 -14 80 -24.5t113 -10.5v-185q-96 0 -153.5 15.5t-102.5 32.5q-39 14 -80 24t-115 10z" />
<glyph unicode="&#xd2;" horiz-adv-x="1622" d="M51 760q0 154 60 295q57 135 163 241t242 164q141 59 295 60q154 0 295 -60q135 -57 242 -164q106 -106 163 -241q59 -141 60 -295q0 -154 -60 -295q-57 -135 -163 -242q-106 -106 -242 -164q-141 -59 -295 -59t-295 59q-135 57 -242 164q-106 106 -163 242 q-59 141 -60 295zM236 760q0 -117 43 -221.5t124 -186.5q82 -82 186.5 -125t221.5 -43t221.5 43t186.5 125t124.5 186.5t42.5 221.5t-43 221t-124 186q-82 82 -186.5 125t-221.5 43t-221.5 -43t-186.5 -125t-124.5 -186t-42.5 -221zM623 1946h223l153 -217h-225z" />
<glyph unicode="&#xd3;" horiz-adv-x="1622" d="M51 760q0 154 60 295q57 135 163 241t242 164q141 59 295 60q154 0 295 -60q135 -57 242 -164q106 -106 163 -241q59 -141 60 -295q0 -154 -60 -295q-57 -135 -163 -242q-106 -106 -242 -164q-141 -59 -295 -59t-295 59q-135 57 -242 164q-106 106 -163 242 q-59 141 -60 295zM236 760q0 -117 43 -221.5t124 -186.5q82 -82 186.5 -125t221.5 -43t221.5 43t186.5 125t124.5 186.5t42.5 221.5t-43 221t-124 186q-82 82 -186.5 125t-221.5 43t-221.5 -43t-186.5 -125t-124.5 -186t-42.5 -221zM623 1729l151 217h225l-153 -217h-223z " />
<glyph unicode="&#xd4;" horiz-adv-x="1622" d="M51 760q0 154 60 295q57 135 163 241t242 164q141 59 295 60q154 0 295 -60q135 -57 242 -164q106 -106 163 -241q59 -141 60 -295q0 -154 -60 -295q-57 -135 -163 -242q-106 -106 -242 -164q-141 -59 -295 -59t-295 59q-135 57 -242 164q-106 106 -163 242 q-59 141 -60 295zM236 760q0 -117 43 -221.5t124 -186.5q82 -82 186.5 -125t221.5 -43t221.5 43t186.5 125t124.5 186.5t42.5 221.5t-43 221t-124 186q-82 82 -186.5 125t-221.5 43t-221.5 -43t-186.5 -125t-124.5 -186t-42.5 -221zM545 1729l153 219h226l153 -219h-225 l-41 59l-41 -59h-225z" />
<glyph unicode="&#xd5;" horiz-adv-x="1622" d="M51 760q0 154 60 295q57 135 163 241t242 164q141 59 295 60q154 0 295 -60q135 -57 242 -164q106 -106 163 -241q59 -141 60 -295q0 -154 -60 -295q-57 -135 -163 -242q-106 -106 -242 -164q-141 -59 -295 -59t-295 59q-135 57 -242 164q-106 106 -163 242 q-59 141 -60 295zM236 760q0 -117 43 -221.5t124 -186.5q82 -82 186.5 -125t221.5 -43t221.5 43t186.5 125t124.5 186.5t42.5 221.5t-43 221t-124 186q-82 82 -186.5 125t-221.5 43t-221.5 -43t-186.5 -125t-124.5 -186t-42.5 -221zM586 1763v185q98 0 155.5 -15.5 t102.5 -31.5q39 -14 80 -24.5t112 -10.5v-185q-96 0 -153.5 15.5t-102.5 32.5q-39 14 -80 24t-114 10z" />
<glyph unicode="&#xd6;" horiz-adv-x="1622" d="M51 760q0 154 60 295q57 135 163 241t242 164q141 59 295 60q154 0 295 -60q135 -57 242 -164q106 -106 163 -241q59 -141 60 -295q0 -154 -60 -295q-57 -135 -163 -242q-106 -106 -242 -164q-141 -59 -295 -59t-295 59q-135 57 -242 164q-106 106 -163 242 q-59 141 -60 295zM236 760q0 -117 43 -221.5t124 -186.5q82 -82 186.5 -125t221.5 -43t221.5 43t186.5 125t124.5 186.5t42.5 221.5t-43 221t-124 186q-82 82 -186.5 125t-221.5 43t-221.5 -43t-186.5 -125t-124.5 -186t-42.5 -221zM586 1763v185q98 0 155.5 -15.5 t102.5 -31.5q39 -14 80 -24.5t112 -10.5v-185q-96 0 -153.5 15.5t-102.5 32.5q-39 14 -80 24t-114 10z" />
<glyph unicode="&#xd7;" horiz-adv-x="845" d="M102 342l191 190l-191 189l131 131l191 -190l188 190l131 -131l-190 -189l190 -190l-131 -131l-188 190l-191 -190z" />
<glyph unicode="&#xd8;" horiz-adv-x="1622" d="M51 760q0 154 60 295q57 135 163 241t242 164q141 59 295 60q152 0 291 -58l33 58h213l-84 -150q47 -37 84 -74q106 -106 163 -241q59 -141 60 -295q0 -154 -60 -295q-57 -135 -163 -242q-106 -106 -242 -164q-141 -59 -295 -59q-152 0 -293 59l-33 -59h-211l84 150 q-47 37 -84 73q-106 106 -163 242q-59 141 -60 295zM236 760q0 -117 42.5 -221.5t124.5 -186.5q23 -23 48 -41l559 989q-94 35 -199 35q-117 0 -221.5 -43t-186.5 -125t-124.5 -186t-42.5 -221zM610 219q98 -35 201 -35q117 0 221.5 43t186.5 125t124.5 186.5t42.5 221.5 t-43 221t-124 186q-10 10 -22.5 21.5t-25.5 21.5z" />
<glyph unicode="&#xd9;" horiz-adv-x="1404" d="M51 651v869h185v-869q0 -94 35.5 -179t101.5 -150q66 -66 150.5 -102t178.5 -36t179.5 36t150.5 102q66 66 101.5 150.5t35.5 178.5v869h185v-869q0 -137 -51 -254q-49 -117 -140 -207q-90 -90 -207 -139q-117 -51 -254 -51t-253 51q-117 49 -207 139t-140 207 q-51 117 -51 254zM514 1946h223l154 -217h-225z" />
<glyph unicode="&#xda;" horiz-adv-x="1404" d="M51 651v869h185v-869q0 -94 35.5 -179t101.5 -150q66 -66 150.5 -102t178.5 -36t179.5 36t150.5 102q66 66 101.5 150.5t35.5 178.5v869h185v-869q0 -137 -51 -254q-49 -117 -140 -207q-90 -90 -207 -139q-117 -51 -254 -51t-253 51q-117 49 -207 139t-140 207 q-51 117 -51 254zM514 1729l152 217h225l-154 -217h-223z" />
<glyph unicode="&#xdb;" horiz-adv-x="1404" d="M51 651v869h185v-869q0 -94 35.5 -179t101.5 -150q66 -66 150.5 -102t178.5 -36t179.5 36t150.5 102q66 66 101.5 150.5t35.5 178.5v869h185v-869q0 -137 -51 -254q-49 -117 -140 -207q-90 -90 -207 -139q-117 -51 -254 -51t-253 51q-117 49 -207 139t-140 207 q-51 117 -51 254zM436 1729l154 219h225l154 -219h-226l-41 59l-40 -59h-226z" />
<glyph unicode="&#xdc;" horiz-adv-x="1404" d="M51 651v869h185v-869q0 -94 35.5 -179t101.5 -150q66 -66 150.5 -102t178.5 -36t179.5 36t150.5 102q66 66 101.5 150.5t35.5 178.5v869h185v-869q0 -137 -51 -254q-49 -117 -140 -207q-90 -90 -207 -139q-117 -51 -254 -51t-253 51q-117 49 -207 139t-140 207 q-51 117 -51 254zM426 1837q0 47 31.5 79t79.5 32q47 0 78.5 -32t31.5 -79t-31.5 -79t-78.5 -32t-79 32t-32 79zM758 1837q0 47 31.5 79t78.5 32t79 -32t32 -79t-32 -79t-79 -32t-78.5 32t-31.5 79z" />
<glyph unicode="&#xdd;" horiz-adv-x="1337" d="M51 1520h228l389 -545l391 545h227l-526 -734v-786h-185v786zM479 1729l154 217h225l-153 -217h-226z" />
<glyph unicode="&#xde;" horiz-adv-x="1214" d="M51 0v1520h185v-306h475q92 0 172.5 -35t146.5 -98q66 -66 99.5 -147.5t33.5 -173.5t-33.5 -174t-99.5 -148q-66 -63 -146.5 -97t-172.5 -34h-475v-307h-185zM236 492h475q55 0 104 20t85 57t57.5 86.5t21.5 104.5t-21.5 104t-57.5 86t-85 58.5t-104 21.5h-475v-538z" />
<glyph unicode="&#xdf;" horiz-adv-x="1064" d="M51 -184v1304q0 82 32 156t85 127t126 85t157 32q82 0 154.5 -32t125.5 -85t85 -127t32 -156q0 -72 -24.5 -137t-69.5 -119q70 -35 127 -90q66 -66 99.5 -147.5t33.5 -173.5q0 -186 -133 -320q-66 -66 -148 -99.5t-174 -33.5h-139v184h139q55 0 104.5 21.5t86 57.5t58 85 t21.5 105q0 55 -21.5 104t-58 86t-86 58.5t-104.5 21.5h-108v184q43 0 81.5 16.5t68.5 46t46.5 68.5t16.5 82q0 45 -16.5 84t-46.5 67.5t-68.5 46t-81.5 17.5q-45 0 -84 -17.5t-69 -46t-46 -67.5t-16 -84v-1304h-185z" />
<glyph unicode="&#xe0;" d="M51 547q0 -111 41 -210t119 -177t176 -119t209 -41q102 0 194.5 36t167.5 101v-137h185v1092h-185v-138q-76 66 -168 102t-194 36q-111 0 -209 -41t-176 -119t-119 -176.5t-41 -208.5zM236 547q0 74 28.5 139.5t77.5 114.5t114.5 77.5t139.5 28.5q76 0 141.5 -28.5 t114.5 -77.5t77.5 -114.5t28.5 -139.5q0 -76 -28.5 -141.5t-77.5 -114.5t-114.5 -78t-141.5 -29q-74 0 -139.5 29t-114.5 78t-77.5 114.5t-28.5 141.5zM408 1518h225l153 -218h-225z" />
<glyph unicode="&#xe1;" d="M51 547q0 111 41 209t119 176t176 119t209 41q102 0 194.5 -36t167.5 -102v138h185v-1092h-185v137q-76 -66 -168 -101.5t-194 -35.5q-111 0 -209 41t-176 119t-119 177t-41 210zM236 547q0 -76 28.5 -141.5t77.5 -114.5t114.5 -78t139.5 -29q76 0 141.5 29t114.5 78 t77.5 114.5t28.5 141.5q0 74 -28.5 139.5t-77.5 114.5t-114.5 77.5t-141.5 28.5q-74 0 -139.5 -28.5t-114.5 -77.5t-77.5 -114.5t-28.5 -139.5zM408 1300l153 218h225l-153 -218h-225z" />
<glyph unicode="&#xe2;" d="M51 547q0 111 41 209t119 176t176 119t209 41q102 0 194.5 -36t167.5 -102v138h185v-1092h-185v137q-76 -66 -168 -101.5t-194 -35.5q-111 0 -209 41t-176 119t-119 177t-41 210zM236 547q0 -76 28.5 -141.5t77.5 -114.5t114.5 -78t139.5 -29q76 0 141.5 29t114.5 78 t77.5 114.5t28.5 141.5q0 74 -28.5 139.5t-77.5 114.5t-114.5 77.5t-141.5 28.5q-74 0 -139.5 -28.5t-114.5 -77.5t-77.5 -114.5t-28.5 -139.5zM332 1300l153 220h224l153 -220h-225l-41 60l-39 -60h-225z" />
<glyph unicode="&#xe3;" d="M51 547q0 -111 41 -210t119 -177t176 -119t209 -41q102 0 194.5 36t167.5 101v-137h185v1092h-185v-138q-76 66 -168 102t-194 36q-111 0 -209 -41t-176 -119t-119 -176.5t-41 -208.5zM236 547q0 74 28.5 139.5t77.5 114.5t114.5 77.5t139.5 28.5q76 0 141.5 -28.5 t114.5 -77.5t77.5 -114.5t28.5 -139.5q0 -76 -28.5 -141.5t-77.5 -114.5t-114.5 -78t-141.5 -29q-74 0 -139.5 29t-114.5 78t-77.5 114.5t-28.5 141.5zM371 1335v185q98 0 155.5 -15.5t102.5 -31.5q39 -14 80 -24.5t112 -10.5v-185q-96 0 -153.5 15.5t-102.5 31.5 q-39 14 -80 24.5t-114 10.5z" />
<glyph unicode="&#xe4;" d="M51 547q0 111 41 209t119 176t176 119t209 41q102 0 194.5 -36t167.5 -102v138h185v-1092h-185v137q-76 -66 -168 -101.5t-194 -35.5q-111 0 -209 41t-176 119t-119 177t-41 210zM236 547q0 -76 28.5 -141.5t77.5 -114.5t114.5 -78t139.5 -29q76 0 141.5 29t114.5 78 t77.5 114.5t28.5 141.5q0 74 -28.5 139.5t-77.5 114.5t-114.5 77.5t-141.5 28.5q-74 0 -139.5 -28.5t-114.5 -77.5t-77.5 -114.5t-28.5 -139.5zM319 1409q0 47 33 79t78 32q47 0 79 -32t32 -79t-32 -79t-79 -32q-45 0 -78 32t-33 79zM651 1409q0 47 33 79t78 32 q47 0 78.5 -32t31.5 -79t-31.5 -79t-78.5 -32q-45 0 -78 32t-33 79z" />
<glyph unicode="&#xe5;" d="M51 547q0 -111 41 -210t119 -177t176 -119t209 -41q102 0 194.5 36t167.5 101v-137h185v1092h-185v-138q-76 66 -168 102t-194 36q-111 0 -209 -41t-176 -119t-119 -176.5t-41 -208.5zM236 547q0 74 28.5 139.5t77.5 114.5t114.5 77.5t139.5 28.5q76 0 141.5 -28.5 t114.5 -77.5t77.5 -114.5t28.5 -139.5q0 -76 -28.5 -141.5t-77.5 -114.5t-114.5 -78t-141.5 -29q-74 0 -139.5 29t-114.5 78t-77.5 114.5t-28.5 141.5zM401 1325q0 39 15.5 75t42 62.5t61.5 42t76 15.5t77 -15.5t61.5 -42t41 -62.5t15.5 -75q0 -41 -15.5 -76t-41 -61.5 t-61.5 -42t-77 -15.5t-76 15.5t-61.5 42t-42 61.5t-15.5 76zM516 1325q0 -35 22.5 -58.5t57.5 -23.5t58.5 23.5t23.5 58.5t-23.5 58.5t-58.5 23.5t-57.5 -23.5t-22.5 -58.5z" />
<glyph unicode="&#xe6;" horiz-adv-x="2101" d="M51 547q0 111 41 209t119 176t176 119t209 41q102 0 194.5 -36t167.5 -102v138h185v-138q74 66 166 102t194 36q111 0 210 -41t177 -119t119 -176.5t41 -208.5v-92h-895q14 -59 48 -108.5t80 -85.5t102.5 -56.5t117.5 -20.5q90 0 168 41q76 41 125 109l150 -109 q-76 -104 -189 -164q-117 -61 -254 -61q-102 0 -194 36t-166 101v-137h-185v137q-76 -66 -168 -101.5t-194 -35.5q-111 0 -209 41t-176 119t-119 177t-41 210zM236 547q0 -76 28.5 -141.5t77.5 -114.5t114.5 -78t139.5 -29q76 0 141.5 29t114.5 78t77.5 114.5t28.5 141.5 q0 74 -28.5 139.5t-77.5 114.5t-114.5 77.5t-141.5 28.5q-74 0 -139.5 -28.5t-114.5 -77.5t-77.5 -114.5t-28.5 -139.5zM1155 639h698q-16 57 -48.5 106.5t-79 85t-102.5 56t-120 20.5q-61 0 -117.5 -20.5t-102.5 -56t-80 -85t-48 -106.5z" />
<glyph unicode="&#xe7;" horiz-adv-x="1034" d="M51 547q0 111 41 209t119 176t176 119t209 41t210 -41t177 -119l-131 -131q-51 53 -116.5 79.5t-139.5 26.5t-139.5 -28.5t-114.5 -77.5t-77.5 -114.5t-28.5 -139.5q0 -76 28.5 -141.5t77.5 -114.5t114.5 -78t139.5 -29t139.5 27t116.5 80l131 -131q-117 -117 -274 -148 l2 -2q37 -37 56 -85t19 -101q0 -55 -21.5 -104.5t-58 -86t-86 -58t-104.5 -21.5t-104.5 21.5t-85 58t-57 86t-21.5 104.5h184q0 -35 24.5 -60.5t59.5 -25.5t60.5 25.5t25.5 60.5t-24 59l-3 2l-114 131q-143 37 -250 144q-78 78 -119 177t-41 210z" />
<glyph unicode="&#xe8;" d="M51 547q0 -111 41 -210t119 -177t176 -119t209 -41q137 0 254 61q113 59 188 164l-149 109q-49 -68 -125 -109q-78 -41 -168 -41q-61 0 -117.5 20.5t-102.5 56.5t-80 85t-48 109h895v92q0 111 -41 209t-119 176t-177 119t-210 41t-209 -41t-176 -119t-119 -176.5 t-41 -208.5zM248 639q14 57 48 106.5t80 85t102.5 56t117.5 20.5q63 0 119.5 -20.5t102.5 -56t79 -85t49 -106.5h-698zM408 1518h225l153 -218h-225z" />
<glyph unicode="&#xe9;" d="M51 547q0 111 41 209t119 176t176 119t209 41t210 -41t177 -119t119 -176.5t41 -208.5v-92h-895q14 -59 48 -108.5t80 -85.5t102.5 -56.5t117.5 -20.5q90 0 168 41q76 41 125 109l149 -109q-76 -104 -188 -164q-117 -61 -254 -61q-111 0 -209 41t-176 119t-119 177 t-41 210zM248 639h698q-16 57 -49 106.5t-79 85t-102.5 56t-119.5 20.5q-61 0 -117.5 -20.5t-102.5 -56t-80 -85t-48 -106.5zM408 1300l153 218h225l-153 -218h-225z" />
<glyph unicode="&#xea;" d="M51 547q0 111 41 209t119 176t176 119t209 41t210 -41t177 -119t119 -176.5t41 -208.5v-92h-895q14 -59 48 -108.5t80 -85.5t102.5 -56.5t117.5 -20.5q90 0 168 41q76 41 125 109l149 -109q-76 -104 -188 -164q-117 -61 -254 -61q-111 0 -209 41t-176 119t-119 177 t-41 210zM248 639h698q-16 57 -49 106.5t-79 85t-102.5 56t-119.5 20.5q-61 0 -117.5 -20.5t-102.5 -56t-80 -85t-48 -106.5zM332 1300l153 220h224l153 -220h-225l-41 60l-39 -60h-225z" />
<glyph unicode="&#xeb;" d="M51 547q0 111 41 209t119 176t176 119t209 41t210 -41t177 -119t119 -176.5t41 -208.5v-92h-895q14 -59 48 -108.5t80 -85.5t102.5 -56.5t117.5 -20.5q90 0 168 41q76 41 125 109l149 -109q-76 -104 -188 -164q-117 -61 -254 -61q-111 0 -209 41t-176 119t-119 177 t-41 210zM248 639h698q-16 57 -49 106.5t-79 85t-102.5 56t-119.5 20.5q-61 0 -117.5 -20.5t-102.5 -56t-80 -85t-48 -106.5zM319 1409q0 47 33 79t78 32q47 0 79 -32t32 -79t-32 -79t-79 -32q-45 0 -78 32t-33 79zM651 1409q0 47 33 79t78 32q47 0 78.5 -32t31.5 -79 t-31.5 -79t-78.5 -32q-45 0 -78 32t-33 79z" />
<glyph unicode="&#xec;" horiz-adv-x="315" d="M-113 1518h224l153 -218h-225zM80 0h184v1092h-184v-1092z" />
<glyph unicode="&#xed;" horiz-adv-x="317" d="M51 0v1092h185v-1092h-185zM51 1300l154 218h225l-154 -218h-225z" />
<glyph unicode="&#xee;" horiz-adv-x="684" d="M102 1300l154 220h225l152 -220h-223l-41 60l-41 -60h-226zM276 0v1092h185v-1092h-185z" />
<glyph unicode="&#xef;" horiz-adv-x="593" d="M20 1409q0 47 32 79t79 32t79 -32t32 -79t-32 -79t-79 -32t-79 32t-32 79zM205 0v1092h184v-1092h-184zM352 1409q0 47 32 79t79 32t78.5 -32t31.5 -79t-31.5 -79t-78.5 -32t-79 32t-32 79z" />
<glyph unicode="&#xf1;" horiz-adv-x="1009" d="M51 0h185v639q0 55 21.5 104.5t57 85t85 57t104.5 21.5t104 -21.5t86 -57t58.5 -85t21.5 -104.5v-639h184v639q0 92 -33.5 172.5t-99.5 146.5t-147.5 100t-173.5 34q-150 0 -268 -88v88h-185v-1092zM279 1335v185q98 0 155.5 -15.5t102.5 -31.5q39 -14 79.5 -24.5 t112.5 -10.5v-185q-96 0 -153.5 15.5t-102.5 31.5q-39 14 -80 24.5t-114 10.5z" />
<glyph unicode="&#xf2;" d="M51 547q0 111 41 209t119 176t176 119t209 41t210 -41t177 -119t119 -176.5t41 -208.5q0 -111 -41 -210t-119 -177t-177 -119t-210 -41t-209 41t-176 119t-119 177t-41 210zM236 547q0 -76 28.5 -141.5t77.5 -114.5t114.5 -78t139.5 -29q76 0 141.5 29t114.5 78 t77.5 114.5t28.5 141.5q0 74 -28.5 139.5t-77.5 114.5t-114.5 77.5t-141.5 28.5q-74 0 -139.5 -28.5t-114.5 -77.5t-77.5 -114.5t-28.5 -139.5zM408 1518h225l153 -218h-225z" />
<glyph unicode="&#xf3;" d="M51 547q0 111 41 209t119 176t176 119t209 41t210 -41t177 -119t119 -176.5t41 -208.5q0 -111 -41 -210t-119 -177t-177 -119t-210 -41t-209 41t-176 119t-119 177t-41 210zM236 547q0 -76 28.5 -141.5t77.5 -114.5t114.5 -78t139.5 -29q76 0 141.5 29t114.5 78 t77.5 114.5t28.5 141.5q0 74 -28.5 139.5t-77.5 114.5t-114.5 77.5t-141.5 28.5q-74 0 -139.5 -28.5t-114.5 -77.5t-77.5 -114.5t-28.5 -139.5zM408 1300l153 218h225l-153 -218h-225z" />
<glyph unicode="&#xf4;" d="M51 547q0 111 41 209t119 176t176 119t209 41t210 -41t177 -119t119 -176.5t41 -208.5q0 -111 -41 -210t-119 -177t-177 -119t-210 -41t-209 41t-176 119t-119 177t-41 210zM236 547q0 -76 28.5 -141.5t77.5 -114.5t114.5 -78t139.5 -29q76 0 141.5 29t114.5 78 t77.5 114.5t28.5 141.5q0 74 -28.5 139.5t-77.5 114.5t-114.5 77.5t-141.5 28.5q-74 0 -139.5 -28.5t-114.5 -77.5t-77.5 -114.5t-28.5 -139.5zM332 1300l153 220h224l153 -220h-225l-41 60l-39 -60h-225z" />
<glyph unicode="&#xf5;" d="M51 547q0 111 41 209t119 176t176 119t209 41t210 -41t177 -119t119 -176.5t41 -208.5q0 -111 -41 -210t-119 -177t-177 -119t-210 -41t-209 41t-176 119t-119 177t-41 210zM236 547q0 -76 28.5 -141.5t77.5 -114.5t114.5 -78t139.5 -29q76 0 141.5 29t114.5 78 t77.5 114.5t28.5 141.5q0 74 -28.5 139.5t-77.5 114.5t-114.5 77.5t-141.5 28.5q-74 0 -139.5 -28.5t-114.5 -77.5t-77.5 -114.5t-28.5 -139.5zM371 1335v185q98 0 155.5 -15.5t102.5 -31.5q39 -14 80 -24.5t112 -10.5v-185q-96 0 -153.5 15.5t-102.5 31.5q-39 14 -80 24.5 t-114 10.5z" />
<glyph unicode="&#xf6;" d="M51 547q0 111 41 209t119 176t176 119t209 41t210 -41t177 -119t119 -176.5t41 -208.5q0 -111 -41 -210t-119 -177t-177 -119t-210 -41t-209 41t-176 119t-119 177t-41 210zM236 547q0 -76 28.5 -141.5t77.5 -114.5t114.5 -78t139.5 -29q76 0 141.5 29t114.5 78 t77.5 114.5t28.5 141.5q0 74 -28.5 139.5t-77.5 114.5t-114.5 77.5t-141.5 28.5q-74 0 -139.5 -28.5t-114.5 -77.5t-77.5 -114.5t-28.5 -139.5zM319 1409q0 47 33 79t78 32q47 0 79 -32t32 -79t-32 -79t-79 -32q-45 0 -78 32t-33 79zM651 1409q0 47 33 79t78 32 q47 0 78.5 -32t31.5 -79t-31.5 -79t-78.5 -32q-45 0 -78 32t-33 79z" />
<glyph unicode="&#xf7;" horiz-adv-x="825" d="M51 440v185h723v-185h-723zM301 211q0 47 32 79t79 32t78.5 -32t31.5 -79t-31.5 -79t-78.5 -32t-79 32t-32 79zM301 852q0 47 32 79t79 32t78.5 -32t31.5 -79t-31.5 -79t-78.5 -32t-79 32t-32 79z" />
<glyph unicode="&#xf8;" d="M51 547q0 111 41 209t119 176t176 119t209 41q100 0 184 -33l19 33h213l-70 -123q10 -10 20.5 -18.5t20.5 -18.5q78 -78 119 -176.5t41 -208.5q0 -111 -41 -210t-119 -177t-177 -119t-210 -41q-100 0 -184 33l-19 -33h-211l70 123q-10 10 -20.5 18.5t-20.5 18.5 q-78 78 -119 177t-41 210zM236 547q0 -78 28.5 -144.5t79.5 -115.5l344 608q-43 12 -92 12q-74 0 -139.5 -28.5t-114.5 -77.5t-77.5 -114.5t-28.5 -139.5zM504 197q43 -13 92 -13q76 0 141.5 29t114.5 78t77.5 114.5t28.5 141.5t-28.5 142.5t-79.5 115.5z" />
<glyph unicode="&#xf9;" horiz-adv-x="1009" d="M51 455q0 -188 133 -322q133 -133 320 -133q152 0 270 88v-88h184v1092h-184v-637q0 -55 -21.5 -104.5t-58.5 -86.5t-86 -58.5t-104 -21.5t-104.5 21.5t-85 58.5t-57 86t-21.5 105v637h-185v-637zM315 1518h226l153 -218h-225z" />
<glyph unicode="&#xfa;" horiz-adv-x="1009" d="M51 455v637h185v-637q0 -55 21.5 -104.5t57 -86.5t85 -58.5t104.5 -21.5t104 21.5t86 58.5t58.5 86t21.5 105v637h184v-1092h-184v88q-119 -88 -270 -88q-186 0 -320 133q-133 133 -133 322zM315 1300l154 218h225l-153 -218h-226z" />
<glyph unicode="&#xfb;" horiz-adv-x="1009" d="M51 455v637h185v-637q0 -55 21.5 -104.5t57 -86.5t85 -58.5t104.5 -21.5t104 21.5t86 58.5t58.5 86t21.5 105v637h184v-1092h-184v88q-119 -88 -270 -88q-186 0 -320 133q-133 133 -133 322zM240 1300l153 220h223l154 -220h-225l-41 60l-39 -60h-225z" />
<glyph unicode="&#xfc;" horiz-adv-x="1009" d="M51 455v637h185v-637q0 -55 21.5 -104.5t57 -86.5t85 -58.5t104.5 -21.5t104 21.5t86 58.5t58.5 86t21.5 105v637h184v-1092h-184v88q-119 -88 -270 -88q-186 0 -320 133q-133 133 -133 322zM227 1409q0 47 33 79t78 32q47 0 79 -32t32 -79t-32 -79t-79 -32q-45 0 -78 32 t-33 79zM559 1409q0 47 33 79t78 32q47 0 78.5 -32t31.5 -79t-31.5 -79t-78.5 -32q-45 0 -78 32t-33 79z" />
<glyph unicode="&#xfd;" horiz-adv-x="1124" d="M51 1092h199l328 -840l327 840h199l-440 -1125l-162 -413h-199l176 446zM389 1300l152 218h225l-154 -218h-223z" />
<glyph unicode="&#xfe;" d="M51 -446v1966h185v-566q76 66 168 102t192 36q111 0 210 -41t177 -119t119 -176.5t41 -208.5q0 -111 -41 -210t-119 -177t-177 -119t-210 -41q-100 0 -192.5 36t-167.5 101v-583h-185zM236 547q0 -76 28.5 -141.5t77.5 -114.5t114.5 -78t139.5 -29q76 0 141.5 29 t114.5 78t77.5 114.5t28.5 141.5q0 74 -28.5 139.5t-77.5 114.5t-114.5 77.5t-141.5 28.5q-74 0 -139.5 -28.5t-114.5 -77.5t-77.5 -114.5t-28.5 -139.5z" />
<glyph unicode="&#xff;" horiz-adv-x="1124" d="M51 1092h199l328 -840l327 840h199l-440 -1125l-162 -413h-199l176 446zM301 1409q0 47 32 79t79 32t78.5 -32t31.5 -79t-31.5 -79t-78.5 -32t-79 32t-32 79zM633 1409q0 47 31.5 79t78.5 32t79 -32t32 -79t-32 -79t-79 -32t-78.5 32t-31.5 79z" />
<glyph unicode="&#x152;" horiz-adv-x="1974" d="M51 760q0 154 60 295q57 135 163 241t242 164q141 59 295 60h1067v-185h-883v-428h772v-184h-772v-539h928v-184h-1112q-154 0 -295 59q-135 57 -242 164q-106 106 -163 242q-59 141 -60 295zM236 760q0 -117 42.5 -221.5t124.5 -186.5t186.5 -125t221.5 -43v1151 q-117 0 -221.5 -43t-186.5 -125t-124.5 -186t-42.5 -221z" />
<glyph unicode="&#x153;" horiz-adv-x="1644" d="M51 547q0 111 41 209t119 176t176 119t209 41q119 0 227 -50q104 49 224 50q111 0 210 -41t177 -119t118.5 -176.5t40.5 -208.5v-92h-895q14 -59 48 -108.5t80 -85.5t102.5 -56.5t118.5 -20.5q90 0 167 41q76 41 125 109l150 -109q-76 -104 -189 -164q-117 -61 -253 -61 q-119 0 -224 49q-109 -49 -227 -49q-111 0 -209 41t-176 119t-119 177t-41 210zM236 547q0 -76 28.5 -141.5t77.5 -114.5t114.5 -78t139.5 -29h20.5t20.5 2q-66 74 -100.5 166t-34.5 195q0 100 34.5 192t100.5 166q-10 2 -20.5 2h-20.5q-74 0 -139.5 -28.5t-114.5 -77.5 t-77.5 -114.5t-28.5 -139.5zM698 639h699q-16 57 -49 106.5t-79 85t-102.5 56t-119.5 20.5q-61 0 -118 -20.5t-103 -56t-79.5 -85t-48.5 -106.5z" />
<glyph unicode="&#x178;" horiz-adv-x="1337" d="M51 1520h228l389 -545l391 545h227l-526 -734v-786h-185v786zM391 1837q0 47 33 79t78 32q47 0 78.5 -32t31.5 -79t-31.5 -79t-78.5 -32q-45 0 -78 32t-33 79zM723 1837q0 47 32.5 79t78.5 32q47 0 78.5 -32t31.5 -79t-31.5 -79t-78.5 -32q-45 0 -78 32t-33 79z" />
<glyph unicode="&#x2c6;" horiz-adv-x="735" d="M102 1300l154 220h223l154 -220h-225l-41 60l-39 -60h-226z" />
<glyph unicode="&#x2dc;" horiz-adv-x="927" d="M102 455v184q59 -47 120 -51t121 10t120.5 41t121 41t120 9t120.5 -50v-184q-61 45 -120.5 51t-120 -9.5t-121 -42t-120.5 -41t-119.5 -10t-121.5 51.5z" />
<glyph unicode="&#x2000;" horiz-adv-x="1059" />
<glyph unicode="&#x2001;" horiz-adv-x="2118" />
<glyph unicode="&#x2002;" horiz-adv-x="1059" />
<glyph unicode="&#x2003;" horiz-adv-x="2118" />
<glyph unicode="&#x2004;" horiz-adv-x="706" />
<glyph unicode="&#x2005;" horiz-adv-x="529" />
<glyph unicode="&#x2006;" horiz-adv-x="353" />
<glyph unicode="&#x2007;" horiz-adv-x="353" />
<glyph unicode="&#x2008;" horiz-adv-x="264" />
<glyph unicode="&#x2009;" horiz-adv-x="423" />
<glyph unicode="&#x200a;" horiz-adv-x="117" />
<glyph unicode="&#x2010;" horiz-adv-x="825" d="M51 440v185h723v-185h-723z" />
<glyph unicode="&#x2011;" horiz-adv-x="825" d="M51 440v185h723v-185h-723z" />
<glyph unicode="&#x2012;" horiz-adv-x="825" d="M51 440v185h723v-185h-723z" />
<glyph unicode="&#x2013;" horiz-adv-x="927" d="M102 440v185h723v-185h-723z" />
<glyph unicode="&#x2014;" horiz-adv-x="1286" d="M102 440v185h1082v-185h-1082z" />
<glyph unicode="&#x2018;" horiz-adv-x="346" d="M51 1276v2q0 49 19.5 93t53.5 77t78 52.5t93 19.5v-185q-18 0 -33 -10q10 -25 10 -49q0 -47 -31.5 -79t-78.5 -32t-79 32t-32 79z" />
<glyph unicode="&#x2019;" horiz-adv-x="346" d="M51 1165v185q18 0 35 10q-12 25 -12 49q0 47 32.5 79t77.5 32q47 0 79 -32t32 -77v-2v-2q0 -49 -19.5 -93t-52.5 -77t-78 -52.5t-94 -19.5z" />
<glyph unicode="&#x201a;" horiz-adv-x="346" d="M51 51q18 0 35 10q-12 20 -12 50q0 47 32.5 78.5t77.5 31.5q47 0 79 -31.5t32 -78.5v-2q0 -49 -19.5 -93.5t-52.5 -77t-78 -52t-94 -19.5v184z" />
<glyph unicode="&#x201c;" horiz-adv-x="653" d="M51 1276v2q0 49 19.5 93t53.5 77t78 52.5t93 19.5v-185q-18 0 -33 -10q10 -25 10 -49q0 -47 -31.5 -79t-78.5 -32t-79 32t-32 79zM356 1276v2q0 49 19.5 93t53.5 77t78 52.5t95 19.5v-185q-18 0 -35 -10q6 -10 8.5 -23.5t2.5 -25.5q0 -47 -32 -79t-79 -32q-45 0 -77 32 t-34 79z" />
<glyph unicode="&#x201d;" horiz-adv-x="653" d="M51 1165v185q18 0 35 10q-12 25 -12 49q0 47 32.5 79t77.5 32q47 0 79 -32t32 -77v-2v-2q0 -49 -19.5 -93t-52.5 -77t-78 -52.5t-94 -19.5zM356 1165v185q20 0 35 10q-10 27 -10 49q0 47 31.5 79t79.5 32q47 0 78.5 -32t31.5 -77v-2v-2q0 -49 -19.5 -93t-53 -77 t-77.5 -52.5t-96 -19.5z" />
<glyph unicode="&#x201e;" horiz-adv-x="653" d="M51 51q18 0 35 10q-12 20 -12 50q0 47 32.5 78.5t77.5 31.5q47 0 79 -31.5t32 -78.5v-2q0 -49 -19.5 -93.5t-52.5 -77t-78 -52t-94 -19.5v184zM356 51q20 0 35 10q-10 25 -10 50q0 47 31.5 78.5t79.5 31.5q47 0 78.5 -31.5t31.5 -78.5v-2q0 -49 -19.5 -93.5t-53 -77 t-77.5 -52t-96 -19.5v184z" />
<glyph unicode="&#x2022;" horiz-adv-x="514" d="M102 547q0 66 45.5 109.5t110.5 43.5q66 0 110 -44t44 -109q0 -66 -44 -111t-110 -45t-111 45t-45 111z" />
<glyph unicode="&#x2026;" horiz-adv-x="991" d="M102 111q0 47 32 78.5t79 31.5t79 -31.5t32 -78.5t-32 -79t-79 -32t-79 31.5t-32 79.5zM385 111q0 47 32 78.5t79 31.5t78.5 -31.5t31.5 -78.5t-31.5 -79t-78.5 -32t-79 31.5t-32 79.5zM668 111q0 47 31.5 78.5t78.5 31.5t79 -31.5t32 -78.5t-32 -79t-79 -32t-78.5 31.5 t-31.5 79.5z" />
<glyph unicode="&#x202f;" horiz-adv-x="423" />
<glyph unicode="&#x2039;" horiz-adv-x="825" d="M51 481v129l723 355v-205l-438 -213l438 -215v-205z" />
<glyph unicode="&#x203a;" horiz-adv-x="825" d="M51 127v205l436 215l-436 213v205l723 -355v-129z" />
<glyph unicode="&#x205f;" horiz-adv-x="529" />
<glyph unicode="&#x20ac;" horiz-adv-x="1054" d="M51 438v185h78q-2 23 -3 45t-1 47q0 23 1 46t3 46h-78v184h113q35 119 98 213q35 51 74 91t86 69q96 63 211 63t211 -63q47 -29 86 -69t74 -91l-154 -102q-45 70 -101.5 105.5t-115.5 35.5q-123 0 -217 -141q-16 -25 -30.5 -53.5t-27.5 -57.5h230v-184h-275 q-2 -23 -3 -46.5t-1 -45.5q0 -25 1 -47.5t3 -44.5h275v-185h-230q12 -31 26.5 -59.5t31.5 -52.5q94 -141 217 -142q59 0 115.5 36t101.5 106l154 -103q-35 -51 -74 -91t-86 -69q-96 -63 -211 -63t-211 63q-47 29 -86 69t-74 91q-66 94 -98 215h-113z" />
<glyph unicode="&#x2122;" horiz-adv-x="749" d="M51 1483v37h242v-37h-103v-266h-36v266h-103zM293 1217l92 303h37l74 -240l73 240h37l92 -303h-36l-74 239l-74 -239h-37l-74 239l-73 -239h-37z" />
<glyph unicode="&#x25fc;" horiz-adv-x="1095" d="M0 0v1096h1096v-1096h-1096z" />
<glyph unicode="&#xfb01;" horiz-adv-x="884" d="M31 907v185h135v55q0 92 33.5 174t99.5 147q133 133 319 134q115 0 216 -54l-86 -164q-59 33 -130 33q-55 0 -104 -21.5t-85 -58.5t-57.5 -86t-21.5 -104v-55h432v-1092h-184v907h-248v-907h-184v907h-135z" />
<glyph unicode="&#xfb02;" horiz-adv-x="956" d="M51 907v185h135v55q0 92 34 174t99 147q134 134 320 134q115 0 215 -54v-1548h-184v907h-299v-907h-185v907h-135zM371 1092h299v323q-10 2 -31 2q-55 0 -104.5 -21.5t-85 -58.5t-57 -86t-21.5 -104v-55z" />
</font>
</defs>
</svg>
